# xmcd
#
# Track frame offsets: 
#        150
#        13877
#        30715
#        42887
#        52812
#        70020
#        77112
#        88592
#        99205
#        111112
#        120250
#        129080
#
# Disc length: 1919 seconds
#
# Revision: 1
# Processed by: cddbd v1.5.2PL0 Copyright (c) Steve Scherf et al.
# Submitted via: ExactAudioCopy v0.95b4
#
DISCID=85077d0c
DTITLE=Dick Curless - Tombstone Every Mile
DYEAR=1965
DGENRE=Country
TTITLE0=A Tombstone Every Mile
TTITLE1=Streets of Laredo
TTITLE2=King of The Road
TTITLE3=Uncle Tom
TTITLE4=China Nights (Shina No Yoru)
TTITLE5=Cupid's Arrow
TTITLE6=Six Times A Day (The Trains Came Down)
TTITLE7=Teardrops In My Heart
TTITLE8=Down By The Old River
TTITLE9=Nine Pound Hammer
TTITLE10=Sunny Side Of The Mountain
TTITLE11=Heart Talk
EXTD=
EXTT0=
EXTT1=
EXTT2=
EXTT3=
EXTT4=
EXTT5=
EXTT6=
EXTT7=
EXTT8=
EXTT9=
EXTT10=
EXTT11=
PLAYORDER=
